<mxfile host="65bd71144e">
    <diagram id="wGQkQs1Zs2WG0cKM3YC_" name="Page-1">
        <mxGraphModel dx="686" dy="561" grid="1" gridSize="10" guides="1" tooltips="1" connect="1" arrows="1" fold="1" page="1" pageScale="1" pageWidth="850" pageHeight="1100" math="0" shadow="0">
            <root>
                <mxCell id="0"/>
                <mxCell id="1" parent="0"/>
                <mxCell id="2" value="Vertical Container" style="swimlane;swimlaneFillColor=#FFFFFF;" vertex="1" parent="1">
                    <mxGeometry x="175" y="150" width="500" height="290" as="geometry"/>
                </mxCell>
                <mxCell id="3" value="Formula" style="text;html=1;strokeColor=none;fillColor=none;align=left;verticalAlign=middle;whiteSpace=wrap;rounded=0;" vertex="1" parent="2">
                    <mxGeometry y="20" width="180" height="30" as="geometry"/>
                </mxCell>
                <mxCell id="4" value="A=[ ( a+b ) / 2] h&amp;nbsp;" style="text;html=1;strokeColor=none;fillColor=none;align=left;verticalAlign=middle;whiteSpace=wrap;rounded=0;" vertex="1" parent="2">
                    <mxGeometry y="40" width="180" height="30" as="geometry"/>
                </mxCell>
                <mxCell id="5" value="Please enter integers for dimensions" style="text;html=1;strokeColor=none;fillColor=none;align=left;verticalAlign=middle;whiteSpace=wrap;rounded=0;" vertex="1" parent="2">
                    <mxGeometry y="80" width="210" height="30" as="geometry"/>
                </mxCell>
                <mxCell id="7" value="" style="rounded=1;whiteSpace=wrap;html=1;" vertex="1" parent="2">
                    <mxGeometry x="65" y="120" width="80" height="20" as="geometry"/>
                </mxCell>
                <mxCell id="8" value="" style="rounded=1;whiteSpace=wrap;html=1;" vertex="1" parent="2">
                    <mxGeometry x="65" y="150" width="80" height="20" as="geometry"/>
                </mxCell>
                <mxCell id="9" value="" style="rounded=1;whiteSpace=wrap;html=1;" vertex="1" parent="2">
                    <mxGeometry x="65" y="180" width="80" height="20" as="geometry"/>
                </mxCell>
                <mxCell id="10" value="A base:&amp;nbsp; &amp;nbsp; &amp;nbsp; &amp;nbsp; &amp;nbsp; &amp;nbsp; &amp;nbsp; &amp;nbsp; &amp;nbsp; &amp;nbsp; &amp;nbsp; &amp;nbsp; &amp;nbsp; &amp;nbsp; &amp;nbsp; mm&amp;nbsp; &amp;nbsp; &amp;nbsp; &amp;nbsp;" style="text;html=1;strokeColor=none;fillColor=none;align=left;verticalAlign=middle;whiteSpace=wrap;rounded=0;" vertex="1" parent="2">
                    <mxGeometry x="20" y="120" width="170" height="30" as="geometry"/>
                </mxCell>
                <mxCell id="12" value="&amp;nbsp;Height:&amp;nbsp; &amp;nbsp; &amp;nbsp; &amp;nbsp; &amp;nbsp; &amp;nbsp; &amp;nbsp; &amp;nbsp; &amp;nbsp; &amp;nbsp; &amp;nbsp; &amp;nbsp; &amp;nbsp; &amp;nbsp; &amp;nbsp; &amp;nbsp; mm&amp;nbsp; &amp;nbsp; &amp;nbsp; &amp;nbsp;" style="text;html=1;strokeColor=none;fillColor=none;align=left;verticalAlign=middle;whiteSpace=wrap;rounded=0;" vertex="1" parent="2">
                    <mxGeometry x="15" y="180" width="180" height="30" as="geometry"/>
                </mxCell>
                <mxCell id="11" value="B base:&amp;nbsp; &amp;nbsp; &amp;nbsp; &amp;nbsp; &amp;nbsp; &amp;nbsp; &amp;nbsp; &amp;nbsp; &amp;nbsp; &amp;nbsp; &amp;nbsp; &amp;nbsp; &amp;nbsp; &amp;nbsp; &amp;nbsp; mm&amp;nbsp; &amp;nbsp; &amp;nbsp; &amp;nbsp;" style="text;html=1;strokeColor=none;fillColor=none;align=left;verticalAlign=middle;whiteSpace=wrap;rounded=0;" vertex="1" parent="2">
                    <mxGeometry x="20" y="150" width="170" height="30" as="geometry"/>
                </mxCell>
                <mxCell id="14" value="A=[ ( a+b ) / 2] h&amp;nbsp;" style="text;html=1;strokeColor=none;fillColor=none;align=left;verticalAlign=middle;whiteSpace=wrap;rounded=0;" vertex="1" parent="2">
                    <mxGeometry x="320" y="145" width="180" height="30" as="geometry"/>
                </mxCell>
                <mxCell id="15" value="" style="shape=trapezoid;perimeter=trapezoidPerimeter;whiteSpace=wrap;html=1;fixedSize=1;" vertex="1" parent="2">
                    <mxGeometry x="320" y="60" width="120" height="60" as="geometry"/>
                </mxCell>
                <mxCell id="16" value="Calculate" style="rounded=1;whiteSpace=wrap;html=1;" vertex="1" parent="2">
                    <mxGeometry x="60" y="230" width="60" height="20" as="geometry"/>
                </mxCell>
                <mxCell id="20" value="Area is 40 mm&lt;span style=&quot;font-size: 10px&quot;&gt;&lt;sup&gt;2&lt;/sup&gt;&lt;/span&gt;" style="text;html=1;strokeColor=none;fillColor=none;align=left;verticalAlign=middle;whiteSpace=wrap;rounded=0;" vertex="1" parent="2">
                    <mxGeometry x="60" y="250" width="180" height="30" as="geometry"/>
                </mxCell>
            </root>
        </mxGraphModel>
    </diagram>
</mxfile>